<?xml version="1.0" encoding="UTF-8"?>
<svg id="svg5" xmlns="http://www.w3.org/2000/svg" viewBox="0 0 800 800">
  <defs>
    <style>
      .cls-1 {
        fill: #fff;
      }
    </style>
  </defs>
  <path class="cls-1" d="M700.78,366.83c-21.58-9.63-41.66-18.01-61.05-27.77-3.46-1.74-5.62-9.19-5.68-14.04-.46-37.04-.25-74.09-.25-111.13,0-5.66,0-11.32,0-19.29-6.7,0-12.21,0-17.72,0-34.44,0-68.89,.6-103.29-.47-7.64-.24-16.74-4.66-22.34-10.08-15.72-15.21-29.48-32.44-45.08-47.78-4.88-4.79-13.12-8.5-19.9-8.64-39.12-.81-78.26-.81-117.38,0-6.75,.14-14.93,4-19.8,8.82-15.91,15.78-30.12,33.27-46.04,49.04-4.85,4.8-13.07,8.56-19.83,8.69-40.07,.8-80.16,.39-121.37,.39v400.77c5.88,0,11.83,0,17.78,0,67.31,0,134.62,.23,201.92-.22,11.2-.07,16.28,2.4,18.5,14.58,3.13,17.18,9.56,33.76,15.07,52.23-5.69,0-10.72,0-15.74,0-77.22,0-154.44,.04-231.66-.01-46.68-.03-74.28-27.16-74.33-73.59-.14-128.87-.12-257.75,0-386.63,.04-47.24,27.6-74.36,75.28-74.5,28.17-.08,56.37,.59,84.51-.44,7.3-.27,14.61-5.27,21.5-8.89,3.05-1.6,5.05-5.19,7.55-7.84,15.39-16.26,28.06-38.77,46.96-46.99,18.93-8.24,44.06-2.32,66.48-2.38,39.13-.1,78.27,.25,117.39-.22,10.11-.12,17.54,2.23,24.36,10.27,13.48,15.9,28.54,30.47,42.11,46.3,6.79,7.92,14.21,10.56,24.37,10.37,29.21-.56,58.44-.54,87.65-.11,38.67,.57,68.21,24.91,69.49,62.14,2.02,58.78,.54,117.68,.54,177.38Z"/>
  <path class="cls-1" d="M663.8,700.71c-87.24,50.19-182.4,27.5-231.42-39.67-48.35-66.25-41.23-160.35,16.56-217.87,57.96-57.69,151.7-64.53,217.92-16.15,65.2,47.64,90.52,141.9,40.72,229.06,19.61,19.01,39.69,38.47,59.94,58.09-16.6,15.88-31.57,30.21-46.69,44.68-18.12-18.47-37.63-38.36-57.02-58.13Zm-196.68-139.31c-.17,56.65,43.2,100.31,99.81,100.47,56.69,.16,100.35-43.21,100.46-99.8,.12-56.73-43.24-100.37-99.8-100.47-56.7-.1-100.3,43.21-100.47,99.81Z"/>
  <path class="cls-1" d="M520.12,331.2c-20.86,7.45-40.86,14.6-60.96,21.78-34.48-49.74-71.55-67.18-117.43-55.02-41.55,11.01-71.51,46.42-74.8,88.42-3.74,47.61,20.31,81.78,75.19,106.5-3.19,20.84-6.39,41.8-9.6,62.78-56.75,.33-123.07-69.88-131.3-139.16-10.17-85.63,43.26-163.57,126.01-183.8,80.26-19.62,164.94,23.42,192.9,98.49Z"/>
</svg>