<?xml version="1.0" encoding="utf-8"?>
<!-- Generator: Adobe Illustrator 26.5.0, SVG Export Plug-In . SVG Version: 6.00 Build 0)  -->
<svg version="1.1" id="Capa_1" xmlns="http://www.w3.org/2000/svg" xmlns:xlink="http://www.w3.org/1999/xlink" x="0px" y="0px"
	 viewBox="0 0 500 500" style="enable-background:new 0 0 500 500;" xml:space="preserve">
<style type="text/css">
	.st0{fill:#13C1AC;}
	.st1{fill:#FFFFFF;}
</style>
<path class="st0" d="M400,500H100C44.8,500,0,455.2,0,400V100C0,44.8,44.8,0,100,0h300c55.2,0,100,44.8,100,100v300
	C500,455.2,455.2,500,400,500z"/>
<g>
	<path class="st1" d="M29.1,321.6c2.5-6.2,5.2-12.3,7.5-18.6c0.5-1.3,0.1-3.1-0.3-4.5c-12.1-39.6,17.4-79.6,58.7-79.3
		c17.5,0.1,32.4,6.7,44.4,19.4c2,2.1,3.8,2.9,6.7,2.8c21.6-0.3,39.2,14.5,43,36.2c3.5,19.7-8.6,39.8-28.2,47.1
		c-1.8,0.7-3.9,2.4-4.6,4.3c-8.5,20-27.7,31.3-49.4,29.1c-2.2-0.2-4.9,0.2-6.6,1.6c-25,21.1-62.5,9-70.2-22.8c-0.2-1-0.7-2.1-1-3.1
		C29.1,329.6,29.1,325.6,29.1,321.6z M69.3,307.3c-2.5,2.2-4.8,4.1-7.1,6.1c-6,4.9-8.6,11.2-6.3,18.8c2.1,6.8,6.7,10.9,13.8,12
		c8.1,1.2,13.9-2.3,17.8-9.2c1.7-3.1,3.6-6.1,5.4-9.2c3.7,1.7,6.9,3.2,10.1,4.7c14.3,6.3,28.5-1.6,30.6-17c0.6-3.9,0.8-7.8,1.3-12
		c4.3,0,7.9,0.1,11.6,0c7.5-0.1,13-3.7,15.8-10.6c2.6-6.6,1.6-12.8-3.3-17.9c-5.2-5.4-11.5-6.7-18.5-4.4c-3.2,1-6.4,2.3-9.8,3.5
		c-2.2-3.7-4.1-7.1-6.3-10.5c-10.2-15.9-31.2-21.1-47.3-11.6c-16.3,9.5-22.4,29.8-13.9,46.7C65,299.9,67.1,303.4,69.3,307.3z"/>
	<path class="st1" d="M249.5,50.3c28.5-0.1,53.3,19.8,59.8,47.7c0.5,1.8,2.1,4,3.8,4.9c18.6,10.6,27,32.2,20,52.1
		c-7.1,19.9-27.2,31.5-48.2,27.8c-2.5-0.5-4.5-0.1-6.7,1.6c-16.8,13.1-40.2,13.1-57.1,0.1c-2.1-1.6-3.9-2.2-6.6-1.7
		c-21.4,3.8-41.4-7.8-48.4-28s1.5-41.4,20.6-52.1c1.5-0.9,2.9-3.1,3.2-4.9C196.3,70.4,221.2,50.5,249.5,50.3z M273.8,149.9
		c4,2.3,7.7,4.6,11.5,6.4c6.4,3.1,12.7,2.4,18.1-2.2c5.3-4.4,7.5-10.1,5.8-16.9c-1.7-6.9-6.1-11.3-13-12.8
		c-3.6-0.8-7.2-1.4-11.3-2.2c0-3.9,0.1-7.6,0-11.3c-0.5-18.3-14.5-33.1-32.9-34.6c-17.5-1.4-33.7,11-36.9,28.6
		c-1,5.5-0.8,11.4-1.2,17.3c-3.3,0.7-6.7,1.3-10,2c-7.4,1.4-12.1,5.8-13.8,13c-1.7,7,0.6,12.9,6.2,17.1c5.9,4.6,12.4,4.8,19,1.3
		c3.3-1.8,6.7-3.8,10.2-5.9c6.2,8.9,11.3,18.6,24,18.8C262.4,168.6,267.7,158.7,273.8,149.9z"/>
	<path class="st1" d="M466.4,241.2c-1.2,5.9-2.4,11.7-3.2,17.7c-0.3,2.1-0.2,4.6,0.7,6.2c10.9,18.8,7.2,41.8-9,55.3
		c-16.1,13.6-39.2,13.3-55.8-0.3c-1.5-1.3-4.1-2-6.1-1.7c-21.1,2.8-41.4-8.7-49.6-28.5c-1.2-2.6-2.5-4-5.2-4.9
		c-19.4-6.9-31.5-27.4-28-47.1c4-21.5,21.3-36.2,42.8-36c3,0,4.9-0.8,7-3c17.9-17.8,39.4-23.9,63.4-16.1c23.8,7.8,37.4,25,41.4,49.7
		c0.5,2.9,0.6,5.6,0.9,8.5C466,241.2,466.3,241.2,466.4,241.2z M430,267.8c2.1-3.7,4-7,5.8-10.4c8.9-17.1,3-37.6-13.5-47.1
		c-16.7-9.7-37.4-4.4-47.9,12.1c-2,3.1-3.2,7.9-6,9c-2.6,1-6.9-1.7-10.4-2.8c-0.5-0.1-0.8-0.2-1.3-0.3c-6.4-1.6-12,0.1-16.5,4.7
		c-4.6,4.7-5.9,10.5-3.9,16.7c2.5,8.4,8.9,12.1,20.4,12.1c7.8,0,7.8,0,8.3,7.6c0.1,1.6,0.3,3.1,0.6,4.7c2.1,14.8,16.2,22.9,30,16.9
		c3.6-1.5,7-3.2,10.7-4.9c2.1,3.6,3.9,6.9,6,10.1c3.9,6.3,9.7,9.3,17,8.3c7.1-0.9,11.9-5.1,13.9-11.7c2.2-7.1,0.1-13.2-5.4-18.2
		C435.4,272.3,432.8,270.1,430,267.8z"/>
	<path class="st1" d="M236.9,225.1c8.5,0,16.8,0,25.3,0c0,43.8,0,87.7,0,131.7c-8.4,0-16.8,0-25.3,0
		C236.9,312.9,236.9,269.2,236.9,225.1z"/>
	<path class="st1" d="M162.4,363.1c25,29.9,33.9,62.2,31.5,95.2c-8.2,0-16.5,0-25.3,0c0.2-14.5-0.7-28.8-5.3-42.7
		c-4.6-13.8-12.5-25.7-21.6-37.4C148.7,373.1,155.4,368.1,162.4,363.1z"/>
	<path class="st1" d="M326.2,428.2c-9.2,0-17.4,0-25.8,0c-2.5-36.1,8.4-67.5,31.5-95.2c6.8,4.9,13.5,9.8,20.9,15.2
		C333.1,371.2,323.7,397.7,326.2,428.2z"/>
</g>
</svg>
