<?xml version="1.0" encoding="utf-8"?>
<!-- Generator: Adobe Illustrator 26.5.0, SVG Export Plug-In . SVG Version: 6.00 Build 0)  -->
<svg version="1.1" id="Capa_1" xmlns="http://www.w3.org/2000/svg" xmlns:xlink="http://www.w3.org/1999/xlink" x="0px" y="0px"
	 viewBox="0 0 1133.2 474.8" style="enable-background:new 0 0 1133.2 474.8;" xml:space="preserve">
<style type="text/css">
	.st0{fill:#13C1AC;}
	.st1{fill:#FFFFFF;}
</style>
<g>
	<g>
		<path class="st0" d="M405.3,439.6H224.1c-67.3,0-121.9-54.6-121.9-121.9V169.5c0-67.3,54.6-121.9,121.9-121.9h181.2
			c67.3,0,121.9,54.6,121.9,121.9v148.2C527.2,385.1,472.6,439.6,405.3,439.6z"/>
		<g>
			<path class="st1" d="M123.2,305.5c2.2-5.4,4.5-10.7,6.5-16.2c0.4-1.1,0.1-2.7-0.3-3.9c-10.5-34.4,15.1-69.2,51-68.9
				c15.2,0.1,28.2,5.8,38.6,16.9c1.7,1.8,3.3,2.5,5.8,2.4c18.8-0.3,34.1,12.6,37.4,31.5c3,17.1-7.5,34.6-24.5,40.9
				c-1.6,0.6-3.4,2.1-4,3.7c-7.4,17.4-24.1,27.2-42.9,25.3c-1.9-0.2-4.3,0.2-5.7,1.4c-21.7,18.3-54.3,7.8-61-19.8
				c-0.2-0.9-0.6-1.8-0.9-2.7C123.2,312.4,123.2,308.9,123.2,305.5z M158.1,293c-2.2,1.9-4.2,3.6-6.2,5.3c-5.2,4.3-7.5,9.7-5.5,16.3
				c1.8,5.9,5.8,9.5,12,10.4c7,1,12.1-2,15.5-8c1.5-2.7,3.1-5.3,4.7-8c3.2,1.5,6,2.8,8.8,4.1c12.4,5.5,24.8-1.4,26.6-14.8
				c0.5-3.4,0.7-6.8,1.1-10.4c3.7,0,6.9,0.1,10.1,0c6.5-0.1,11.3-3.2,13.7-9.2c2.3-5.7,1.4-11.1-2.9-15.6c-4.5-4.7-10-5.8-16.1-3.8
				c-2.8,0.9-5.6,2-8.5,3c-1.9-3.2-3.6-6.2-5.5-9.1c-8.9-13.8-27.1-18.3-41.1-10.1c-14.2,8.3-19.5,25.9-12.1,40.6
				C154.4,286.6,156.2,289.6,158.1,293z"/>
			<path class="st1" d="M314.7,69.7c24.8-0.1,46.3,17.2,52,41.5c0.4,1.6,1.8,3.5,3.3,4.3c16.2,9.2,23.5,28,17.4,45.3
				c-6.2,17.3-23.6,27.4-41.9,24.2c-2.2-0.4-3.9-0.1-5.8,1.4c-14.6,11.4-34.9,11.4-49.6,0.1c-1.8-1.4-3.4-1.9-5.7-1.5
				c-18.6,3.3-36-6.8-42.1-24.3s1.3-36,17.9-45.3c1.3-0.8,2.5-2.7,2.8-4.3C268.5,87.1,290.1,69.8,314.7,69.7z M335.8,156.2
				c3.5,2,6.7,4,10,5.6c5.6,2.7,11,2.1,15.7-1.9c4.6-3.8,6.5-8.8,5-14.7c-1.5-6-5.3-9.8-11.3-11.1c-3.1-0.7-6.3-1.2-9.8-1.9
				c0-3.4,0.1-6.6,0-9.8c-0.4-15.9-12.6-28.8-28.6-30.1c-15.2-1.2-29.3,9.6-32.1,24.9c-0.9,4.8-0.7,9.9-1,15
				c-2.9,0.6-5.8,1.1-8.7,1.7c-6.4,1.2-10.5,5-12,11.3c-1.5,6.1,0.5,11.2,5.4,14.9c5.1,4,10.8,4.2,16.5,1.1c2.9-1.6,5.8-3.3,8.9-5.1
				c5.4,7.7,9.8,16.2,20.9,16.3C325.9,172.5,330.5,163.9,335.8,156.2z"/>
			<path class="st1" d="M503.2,235.6c-1,5.1-2.1,10.2-2.8,15.4c-0.3,1.8-0.2,4,0.6,5.4c9.5,16.3,6.3,36.3-7.8,48.1
				c-14,11.8-34.1,11.6-48.5-0.3c-1.3-1.1-3.6-1.7-5.3-1.5c-18.3,2.4-36-7.6-43.1-24.8c-1-2.3-2.2-3.5-4.5-4.3
				c-16.9-6-27.4-23.8-24.3-40.9c3.5-18.7,18.5-31.5,37.2-31.3c2.6,0,4.3-0.7,6.1-2.6c15.6-15.5,34.2-20.8,55.1-14
				c20.7,6.8,32.5,21.7,36,43.2c0.4,2.5,0.5,4.9,0.8,7.4C502.9,235.6,503.1,235.6,503.2,235.6z M471.6,258.7c1.8-3.2,3.5-6.1,5-9
				c7.7-14.9,2.6-32.7-11.7-40.9c-14.5-8.4-32.5-3.8-41.6,10.5c-1.7,2.7-2.8,6.9-5.2,7.8c-2.3,0.9-6-1.5-9-2.4
				c-0.4-0.1-0.7-0.2-1.1-0.3c-5.6-1.4-10.4,0.1-14.3,4.1c-4,4.1-5.1,9.1-3.4,14.5c2.2,7.3,7.7,10.5,17.7,10.5c6.8,0,6.8,0,7.2,6.6
				c0.1,1.4,0.3,2.7,0.5,4.1c1.8,12.9,14.1,19.9,26.1,14.7c3.1-1.3,6.1-2.8,9.3-4.3c1.8,3.1,3.4,6,5.2,8.8c3.4,5.5,8.4,8.1,14.8,7.2
				c6.2-0.8,10.3-4.4,12.1-10.2c1.9-6.2,0.1-11.5-4.7-15.8C476.3,262.6,474,260.7,471.6,258.7z"/>
			<path class="st1" d="M303.8,221.6c7.4,0,14.6,0,22,0c0,38.1,0,76.2,0,114.5c-7.3,0-14.6,0-22,0
				C303.8,297.9,303.8,259.9,303.8,221.6z"/>
			<path class="st1" d="M239,341.5c21.7,26,29.5,54.1,27.4,82.7c-7.1,0-14.3,0-22,0c0.2-12.6-0.6-25-4.6-37.1
				c-4-12-10.9-22.3-18.8-32.5C227.1,350.2,232.9,345.9,239,341.5z"/>
			<path class="st1" d="M381.4,398.1c-8,0-15.1,0-22.4,0c-2.2-31.4,7.3-58.7,27.4-82.7c5.9,4.3,11.7,8.5,18.2,13.2
				C387.4,348.6,379.2,371.6,381.4,398.1z"/>
		</g>
	</g>
	<g>
		<path class="st0" d="M596.2,308.3c0.5-0.3,1.2-0.9,2.2-1.7c1-0.8,2.1-2.3,3.5-4.5c1.3-2.2,2.8-5.4,4.4-9.6s3.3-9.8,5-17
			c0.9-3.8,2.1-8.7,3.7-14.6c1.5-5.9,3.2-12.2,5-18.9c1.8-6.7,3.6-13.6,5.5-20.8c1.9-7.1,3.7-13.9,5.4-20.3s3.3-12.3,4.7-17.5
			s2.5-9.3,3.3-12.2c-2.2,1.4-4.3,3-6.4,4.7c-1.9,1.5-3.8,3.2-5.9,5.1s-4.1,3.9-6.1,6c-1.5-1.3-2.7-2.7-3.5-4.2
			c-0.5-0.7-0.9-1.4-1.2-2.3c-0.7-1.7-1-3.5-1-5.4c0-1.9,1.4-3.8,4.3-5.7c1.5-1,3.8-2.5,6.9-4.5c3.1-2,6.9-3.9,11.4-5.8
			s9.8-3.6,15.8-5c6-1.4,12.7-2.1,20-2.1s13.2,1.5,17.6,4.3c4.5,2.9,7.9,6.4,10.3,10.6c2.4,4.2,3.9,8.6,4.6,13.2
			c0.7,4.6,0.9,8.7,0.5,12.2c-0.7,6.5-2.8,13.3-6.3,20.3c-3.5,7.1-8.3,13.6-14.4,19.6c-6.1,6-13.6,11-22.4,15.2
			c-8.8,4.2-18.9,6.5-30.2,7.1c-0.9,4.4-1.9,8.9-2.8,13.6c-0.9,4.6-1.9,9.2-3,13.6s-2.1,8.6-3.2,12.5c-1.1,3.9-2.2,7.2-3.4,10
			c-1.2,3-2.7,5.4-4.5,7.2c-1.9,1.8-4.8,2.7-8.9,2.7c-2.1,0-4-0.5-5.8-1.6C599.3,311.6,597.7,310.1,596.2,308.3z M637.3,229
			c-0.3,1.9-0.8,4.3-1.3,7.2s-1.1,6.3-1.8,10c3.1-0.5,6.6-1.3,10.4-2.5s7.6-2.9,11.5-5s7.6-4.6,11.2-7.6s7-6.4,10-10.3
			c3-3.9,5.5-8.3,7.6-13.2c2-4.9,3.3-10.4,3.9-16.4c0.6-5.8,0.3-10.6-1-14.5c-1.2-3.9-3-7-5.3-9.4c-2.3-2.4-5-4.1-8-5
			c-3-1-6-1.5-9-1.5c-2.9,0-5.7,0.4-8.5,1.2c-2.8,0.8-5.6,1.9-8.3,3.1c0.3,0.1,0.8,0.4,1.2,0.9c0.7,0.7,1.2,1.7,1.6,3
			c-2.8,11.2-5.1,20.6-6.9,28.2c-1.8,7.5-3.2,13.7-4.3,18.4C639,221.2,638,225.7,637.3,229z"/>
		<path class="st0" d="M754.9,255.8c-1.2,4.4-2.7,8.5-4.7,12.3c-2,3.8-4.3,7.1-7,9.9c-2.7,2.8-5.8,5-9.2,6.5
			c-3.4,1.6-7.2,2.3-11.2,2.3c-4.8,0-8.5-1-11.2-3c-2.7-2-4.8-4.5-6.1-7.6c-1.3-3-2.1-6.3-2.4-9.9c-0.3-3.6-0.4-7-0.4-10.1
			c0-2.2,0.3-4.6,0.8-7.3c0.5-2.7,1.2-5.4,2.2-8.2c0.9-2.8,2.1-5.6,3.6-8.3c1.4-2.8,3.2-5.3,5.1-7.6c0.7-2,1.8-3.7,3.2-5.2
			c1.4-1.5,3.1-2.8,5-3.7c1.9-1,4-1.7,6.2-2.3c2.2-0.5,4.3-0.8,6.4-0.8c0.3,0,0.7,0.1,1,0.2c0.3,0.1,0.6,0.2,1,0.3
			c1.5,0.1,3.4,0.7,5.6,1.7s4.5,2.6,6.6,4.7c2.1,2.1,4,4.7,5.5,7.9c1.5,3.2,2.3,7,2.3,11.6c0,0.9-0.1,2.1-0.2,3.4
			c-0.1,1.3-0.2,2.5-0.3,3.4c2.7-1,5.4-2.3,8.3-3.8c2.9-1.5,5.7-3.1,8.4-4.8c2.7-1.7,5.2-3.4,7.6-5.1c2.3-1.7,4.2-3.3,5.6-4.7
			c1.2-1,2.1-1.6,3-1.7c0.8-0.1,1.4,0.1,1.7,0.7c0.3,0.6,0.4,1.4,0.2,2.4c-0.2,1-0.9,2.2-1.9,3.5c-0.6,0.7-2.1,2.1-4.4,4.2
			c-2.4,2.1-5.2,4.3-8.4,6.8c-3.2,2.4-6.8,4.8-10.6,7.1C762,252.9,758.3,254.6,754.9,255.8z M714.4,260c0,2.1,0.1,4.1,0.3,6.2
			c0.2,2,0.7,3.8,1.4,5.4s1.6,2.8,2.8,3.8c1.2,1,2.7,1.5,4.5,1.5c2.1,0,4-0.5,5.7-1.5c1.7-1,3.3-2.3,4.7-3.8s2.6-3.4,3.7-5.4
			c1.1-2,2.1-4.1,2.9-6.3c-0.8,0.1-1.6,0.2-2.3,0.3c-0.8,0.1-1.6,0.1-2.5,0.1c-4.4,0-8.2-1.3-11.4-3.9c-3.2-2.6-5.6-5.9-7.4-10
			c-0.7,2.4-1.3,4.8-1.7,7.1C714.6,255.7,714.4,257.9,714.4,260z M725.5,229.4c-0.3,1-0.5,2.1-0.5,3.3c0,1.9,0.1,3.8,0.3,5.8
			c0.2,2,0.8,3.9,1.7,5.5c0.9,1.6,2.4,3,4.4,4.1c2,1.1,4.8,1.7,8.4,1.7c0.6,0,1.2,0,1.7-0.1c0.6-0.1,1.2-0.1,1.7-0.3
			c0.3-1.5,0.7-2.9,1-4.1c0.3-1.2,0.4-2.3,0.4-3.2c0.2-2.2,0.2-4.5,0-6.8c-0.2-2.3-0.7-4.4-1.3-6.3c-0.6-1.9-1.5-3.5-2.4-4.7
			c-1-1.2-2.2-1.8-3.6-1.8c-2.2,0-4.3,0.6-6.3,1.8C729.1,225.5,727.2,227.2,725.5,229.4z"/>
		<path class="st0" d="M760.9,357.7c-0.8-0.3-1.6-0.9-2.4-1.6c-0.7-0.6-1.4-1.3-2.1-2.2s-1.3-1.9-1.7-3.2c3.2-12.4,6-23.2,8.3-32.3
			c2.3-9.2,4.2-16.8,5.8-22.9c1.7-7.2,3.2-13.2,4.5-18.1c1.2-4.6,2.3-9.3,3.5-13.9c0.9-4.1,1.9-8.4,3-13c1.1-4.6,2.1-9,3-13
			c1.2-4.5,1.9-8.1,2.1-10.9c0.2-2.7-0.6-5.1-2.6-7c1.4-1.2,2.8-2.1,4.3-2.7c1.4-0.6,2.8-1.1,3.9-1.3c1.3-0.3,2.5-0.5,3.8-0.3
			c3.1,0.2,5.1,1.2,5.8,3c0.8,1.7,0.8,4.5,0.3,8.3c-0.1,0.6-0.2,1.1-0.3,1.5c-0.1,0.4-0.1,0.8-0.1,1.3c1.6-1.9,3.4-3.7,5.4-5.4
			c2-1.7,4-3.3,6-4.7c2-1.4,4.1-2.5,6.3-3.4c2.1-0.9,4.2-1.3,6.2-1.3c2.7,0,4.8,0.7,6.5,2c1.7,1.3,3,3.1,3.9,5.3
			c0.9,2.2,1.5,4.7,1.7,7.4c0.2,2.7,0.3,5.4,0.2,8.1c-0.1,2.9-0.6,6-1.5,9.2c-0.9,3.2-2.1,6.5-3.6,9.9c-1.5,3.4-3.2,6.7-5.2,9.9
			c-2,3.2-4.1,6.3-6.3,9c0.5,0.1,0.8,0.2,0.9,0.3c0.1,0.1,0.2,0.1,0.2,0.2c0,0.1,0.1,0.1,0.3,0.2c0.2,0.1,0.5,0.1,1.1,0.1
			c2.7,0,5.4-0.7,8.2-2.1s5.5-3.2,8.2-5.3c2.7-2.1,5.2-4.5,7.7-7c2.5-2.5,4.8-5,6.8-7.4c2-2.4,3.7-4.5,5.1-6.4s2.4-3.3,3.1-4.1
			c0.9-1.2,1.8-1.9,2.6-2.3c0.8-0.4,1.4-0.4,1.9-0.1c0.5,0.3,0.7,1,0.7,2c0,1-0.3,2.2-1,3.7c-0.5,1-1.5,2.7-3,5
			c-1.5,2.3-3.4,4.9-5.6,7.8c-2.2,2.9-4.7,5.9-7.6,9c-2.8,3.1-5.8,6-9,8.5c-3.1,2.6-6.3,4.7-9.6,6.3s-6.5,2.5-9.6,2.5
			c-1.5,0-2.7-0.1-3.7-0.2c-0.9-0.1-1.7-0.3-2.3-0.6c-0.6-0.3-1.2-0.6-1.8-0.9c-0.6-0.3-1.3-0.6-2.1-1c-2.1,1.6-4.2,2.9-6.4,3.7
			c-2.2,0.9-4.3,1.3-6.4,1.3c-2,0-3.7-0.3-5.1-1c-1.5-0.6-2.6-1.5-3.6-2.6c-0.9-1.1-1.7-2.3-2.3-3.7c-0.6-1.3-1-2.6-1.4-3.9
			c-0.1,0.5-0.2,0.9-0.3,1.2c-0.1,0.3-0.1,0.8-0.3,1.4c-1.4,5.6-2.8,12-4.3,19.3c-1.3,6.3-2.8,13.9-4.6,22.9
			c-1.8,9-3.7,19.2-5.6,30.7c-0.7,3.1-1.9,4.9-3.7,5.4C765.3,358.8,763.3,358.6,760.9,357.7z M792.8,249.9c-0.6,2-1.2,4.3-1.8,6.9
			c-0.6,2.6-1.4,5.7-2.2,9.3c0.9-0.7,2-1.2,3.1-1.6c1.2-0.3,2.3-0.5,3.5-0.5c1.3,0,2.9,0.7,4.9,2c2,1.3,4.3,2.8,7.1,4.3
			c1.7-2.1,3.6-4.4,5.5-7s3.7-5.3,5.2-8.1s2.9-5.6,4-8.5c1.1-2.9,1.7-5.7,1.8-8.3c0.2-3.5-0.2-6.2-1.2-8.2c-1-2-2.8-3-5.2-3
			c-3.6,0-7.5,2.1-11.7,6.3C801.5,237.7,797.2,243.2,792.8,249.9z"/>
		<path class="st0" d="M866.1,317.7c-3.4,0-6.7-0.7-9.9-2c-3.2-1.3-6.1-3.2-8.7-5.6c-2.5-2.4-4.6-5.4-6.1-9
			c-1.5-3.5-2.1-7.6-1.9-12.1c0.3-7.9,1.9-15.2,4.7-21.9c2.8-6.7,6-12.5,9.7-17.4s7.5-8.7,11.3-11.4c3.8-2.7,7-4.1,9.6-4.1
			c1.6,0,3.1,0.6,4.4,1.7c1.3,1.1,2.4,2.5,3.1,4.2c0.8,1.7,1.2,3.5,1.4,5.6c0.2,2-0.1,4-0.8,5.8c-1.2-0.8-3.3-0.5-6.4,0.9
			s-6.4,3.7-9.7,7c-3.4,3.3-6.4,7.4-9,12.3c-2.7,4.9-4.2,10.3-4.5,16.3c-0.2,3.9,0,7.3,0.6,10.1s1.6,5,2.8,6.8s2.6,3,4.2,3.8
			c1.6,0.8,3.2,1.2,5,1.2c4.2,0,8-1.6,11.5-4.7s6.7-7.5,9.6-13.1c2.9-5.6,5.6-12.3,8.2-20.2c2.5-7.8,5-16.5,7.3-26
			c0.7-2.9,1.6-6.5,2.7-10.8c1.1-4.3,2.3-9,3.6-14c1.3-5,2.6-10.3,4.1-15.6c1.4-5.4,2.8-10.5,4.1-15.5c1.3-4.9,2.5-9.5,3.7-13.7
			c1.2-4.2,2.1-7.7,2.8-10.3c-3.8,0-7.6,0.2-11.5,0.7c-3.2,0.3-6.6,0.8-10.1,1.5c-3.5,0.6-6.4,1.5-8.7,2.5c-0.2-0.1-0.4-0.4-0.5-1
			c-0.1-0.5-0.2-1.1-0.3-1.7c-0.1-0.7-0.2-1.4-0.3-2.3c-0.1-0.9-0.1-1.9,0-2.8c0.1-0.8,0.2-1.7,0.3-2.7c0.1-1,0.3-2,0.7-3
			c3-0.9,6.5-1.7,10.5-2.2s7.7-0.9,11.2-1.1c4.1-0.3,8.2-0.5,12.5-0.5c3.1,0,6.4,0.2,9.7,0.5c2.9,0.2,6.1,0.6,9.7,1
			c3.6,0.5,7.2,1.2,10.8,2.1c0.8,0.8,1.3,1.7,1.6,2.8c0.1,0.5,0.2,1,0.2,1.6c0,0.9-0.2,1.8-0.5,2.6c-0.2,0.7-0.6,1.4-1.1,2.2
			c-0.5,0.8-1.2,1.4-2,1.8c-1.3-0.3-2.9-0.6-4.8-0.8s-3.8-0.4-5.6-0.6c-2.1-0.2-4.3-0.4-6.6-0.5l-18.4,82c-0.5,2-1.3,5.1-2.4,9.3
			c-1.2,4.2-2.8,8.9-4.8,14.1c-2,5.2-4.5,10.5-7.3,15.9c-2.8,5.4-6.2,10.4-10,14.9c-3.8,4.5-8.2,8.1-13,11
			C877.4,316.2,872,317.7,866.1,317.7z"/>
		<path class="st0" d="M1006.7,203.6c-0.1-0.3,0.2-1.2,1-2.7c0.8-1.4,1.7-3.2,2.7-5.4c1-2.1,2-4.6,3-7.3c1-2.7,1.7-5.5,2.1-8.4
			c0.4-2.9,0.4-5.8-0.1-8.7c-0.5-2.9-1.7-5.7-3.7-8.3c-1.2-1.4-2.9-2.2-5.1-2.3s-4.8,0.2-7.6,1c-2.8,0.9-5.8,2.2-8.9,4
			c-3.1,1.8-5.9,3.9-8.4,6.3c-2.6,2.4-4.7,5-6.5,7.9c-1.8,2.9-2.8,5.9-3,8.9c-0.2,2.4-0.1,4.7,0.3,6.8c0.4,2.1,1,4,1.7,5.7
			s1.4,3.4,2.3,4.9c0.8,1.5,1.6,2.8,2.3,4c0.9,1.6,2.4,3.4,4.3,5.4c2,2,4.1,4.2,6.4,6.7c2.3,2.5,4.6,5.3,7,8.4
			c2.3,3.1,4.3,6.7,6.1,10.6c1.7,3.9,3,8.3,3.7,13.2s0.6,10.3-0.2,16.2c-1.3,8.6-3.3,15.7-6.1,21.5s-5.8,10.3-9.1,13.8
			s-6.6,6-10,7.6c-3.4,1.6-6.1,2.6-8.3,3c-1.7,0.3-3.8,0.7-6.2,1c-2.4,0.3-4.9,0.2-7.5-0.2c-2.6-0.4-5.2-1.2-7.9-2.4
			c-2.7-1.2-5-3.1-7.1-5.6c-2.4-2.9-4.3-6-5.7-9.4c-1.3-2.9-2.2-6.2-2.9-10c-0.6-3.8-0.3-7.7,1-11.7c0.9-1,1.9-2,3-2.8
			c1-0.8,2.1-1.5,3.1-2.1c1.2-0.7,2.4-1.3,3.7-1.9c1.5-0.5,3-0.9,4.5-1.2c1.3-0.2,2.6-0.4,4.1-0.4c1.4-0.1,2.8,0.1,4.1,0.6
			c-1.7,2-3,3.8-3.7,5.6c-0.5,0.9-0.8,1.7-1,2.4c-0.5,2.2-0.6,4.8-0.4,7.9s0.8,6,1.9,8.9c1.1,2.8,2.7,5.3,4.8,7.3
			c2.1,2,4.9,3.1,8.3,3.2c8.5,0.2,15.6-6.4,21.6-19.8c2-4.2,3-8.4,3-12.7c0.1-4.3-0.5-8.4-1.6-12.3c-1.1-3.9-2.6-7.6-4.3-11
			c-1.8-3.4-3.6-6.3-5.5-8.8c-1.9-2.4-4.1-5.1-6.7-7.9c-2.6-2.8-5.2-5.9-7.7-9.3c-2.6-3.4-4.8-7-6.9-11c-2-3.9-3.4-8.2-4.1-12.9
			c-0.9-6.5-0.3-12.4,1.8-17.8c2.1-5.4,5-10.1,8.7-14.2c3.7-4.1,7.6-7.4,12-9.9c4.3-2.5,8.2-4.2,11.6-4.9
			c18.7-3.7,30.9-0.6,36.7,9.4c2.4,3.8,3.8,7.9,4,12.2c0.2,4.3,0,8.3-0.8,11.9c-0.8,3.7-1.7,6.7-2.8,9.2c-1.1,2.5-1.8,3.9-2.2,4.1
			c-0.7,0.7-1.8,1.5-3.3,2.3c-1.5,0.8-3.9,1.6-7.3,2.3c-0.9,0.2-1.9,0.3-2.8,0.3c-0.8,0-1.7-0.1-2.6-0.2
			C1008.2,204.2,1007.4,204,1006.7,203.6z"/>
	</g>
</g>
</svg>
