<?xml version="1.0" encoding="UTF-8"?>
<svg id="Capa_1" data-name="Capa 1" xmlns="http://www.w3.org/2000/svg" viewBox="0 0 838.59 753.57">
  <defs>
    <style>
      .cls-1 {
        fill: #fff;
      }

      .cls-2 {
        fill: #13c1ac;
      }
    </style>
  </defs>
  <g>
    <rect class="cls-2" x="253.83" y="25.19" width="330.93" height="305.23" rx="48.19" ry="48.19"/>
    <g>
      <path class="cls-1" d="M270.17,225.94c1.71-4.2,3.5-8.33,5.06-12.61,.31-.86,.08-2.1-.23-3.04-8.18-26.79,11.76-53.88,39.71-53.65,11.84,.08,21.96,4.52,30.06,13.16,1.32,1.4,2.57,1.95,4.52,1.87,14.64-.23,26.55,9.81,29.12,24.53,2.34,13.32-5.84,26.94-19.08,31.85-1.25,.47-2.65,1.64-3.11,2.88-5.76,13.55-18.77,21.18-33.4,19.7-1.48-.16-3.35,.16-4.44,1.09-16.9,14.25-42.28,6.07-47.5-15.42-.16-.7-.47-1.4-.7-2.1,0-2.88,0-5.61,0-8.25Zm27.18-9.73c-1.71,1.48-3.27,2.8-4.83,4.13-4.05,3.35-5.84,7.55-4.28,12.69,1.4,4.59,4.52,7.4,9.34,8.1,5.45,.78,9.42-1.56,12.07-6.23,1.17-2.1,2.41-4.13,3.66-6.23,2.49,1.17,4.67,2.18,6.85,3.19,9.66,4.28,19.31-1.09,20.71-11.52,.39-2.65,.55-5.29,.86-8.1,2.88,0,5.37,.08,7.86,0,5.06-.08,8.8-2.49,10.67-7.16,1.79-4.44,1.09-8.64-2.26-12.15-3.5-3.66-7.79-4.52-12.54-2.96-2.18,.7-4.36,1.56-6.62,2.34-1.48-2.49-2.8-4.83-4.28-7.09-6.93-10.75-21.1-14.25-32-7.86-11.06,6.46-15.18,20.17-9.42,31.61,1.32,2.26,2.73,4.59,4.2,7.24Z"/>
      <path class="cls-1" d="M419.28,42.34c19.31-.08,36.05,13.39,40.49,32.31,.31,1.25,1.4,2.73,2.57,3.35,12.61,7.16,18.3,21.8,13.55,35.27-4.83,13.47-18.38,21.34-32.63,18.84-1.71-.31-3.04-.08-4.52,1.09-11.37,8.88-27.18,8.88-38.62,.08-1.4-1.09-2.65-1.48-4.44-1.17-14.48,2.57-28.03-5.29-32.78-18.92-4.75-13.63,1.01-28.03,13.94-35.27,1.01-.62,1.95-2.1,2.18-3.35,4.28-18.69,21.1-32.16,40.26-32.24Zm16.43,67.35c2.73,1.56,5.22,3.11,7.79,4.36,4.36,2.1,8.57,1.64,12.22-1.48,3.58-2.96,5.06-6.85,3.89-11.45-1.17-4.67-4.13-7.63-8.8-8.64-2.41-.55-4.91-.93-7.63-1.48,0-2.65,.08-5.14,0-7.63-.31-12.38-9.81-22.43-22.27-23.44-11.84-.93-22.81,7.48-25,19.39-.7,3.74-.55,7.71-.78,11.68-2.26,.47-4.52,.86-6.77,1.32-4.98,.93-8.18,3.89-9.34,8.8-1.17,4.75,.39,8.72,4.2,11.6,3.97,3.11,8.41,3.27,12.85,.86,2.26-1.25,4.52-2.57,6.93-3.97,4.2,6,7.63,12.61,16.27,12.69,8.72,.08,12.3-6.62,16.43-12.61Z"/>
      <path class="cls-1" d="M566.06,171.52c-.78,3.97-1.64,7.94-2.18,11.99-.23,1.4-.16,3.11,.47,4.2,7.4,12.69,4.91,28.27-6.07,37.45-10.9,9.19-26.55,9.03-37.77-.23-1.01-.86-2.8-1.32-4.13-1.17-14.25,1.87-28.03-5.92-33.56-19.31-.78-1.79-1.71-2.73-3.5-3.35-13.16-4.67-21.34-18.53-18.92-31.85,2.73-14.56,14.41-24.53,28.97-24.37,2.02,0,3.35-.55,4.75-2.02,12.15-12.07,26.63-16.2,42.9-10.9,16.12,5.29,25.31,16.9,28.03,33.64,.31,1.95,.39,3.82,.62,5.76,.16,.16,.31,.16,.39,.16Zm-24.61,17.99c1.4-2.49,2.73-4.75,3.89-7.01,6-11.6,2.02-25.46-9.11-31.85-11.29-6.54-25.31-2.96-32.39,8.18-1.32,2.1-2.18,5.37-4.05,6.07-1.79,.7-4.67-1.17-7.01-1.87-.31-.08-.55-.16-.86-.23-4.36-1.09-8.1,.08-11.13,3.19-3.11,3.19-3.97,7.09-2.65,11.29,1.71,5.68,6,8.18,13.78,8.18q5.29,0,5.61,5.14c.08,1.09,.23,2.1,.39,3.19,1.4,10.04,10.98,15.5,20.32,11.45,2.41-1.01,4.75-2.18,7.24-3.35,1.4,2.41,2.65,4.67,4.05,6.85,2.65,4.28,6.54,6.31,11.52,5.61,4.83-.62,8.02-3.43,9.42-7.94,1.48-4.83,.08-8.95-3.66-12.3-1.71-1.56-3.5-3.04-5.37-4.59Z"/>
      <path class="cls-1" d="M410.8,160.61h17.13v89.16h-17.13v-89.16Z"/>
      <path class="cls-1" d="M360.34,253.98c16.9,20.25,22.97,42.13,21.34,64.4h-17.13c.16-9.81-.47-19.47-3.58-28.89-3.11-9.34-8.49-17.36-14.64-25.31,4.75-3.43,9.27-6.77,14.02-10.2Z"/>
      <path class="cls-1" d="M471.22,298.05h-17.44c-1.71-24.45,5.68-45.71,21.34-64.4,4.59,3.35,9.11,6.62,14.17,10.28-13.39,15.57-19.78,33.48-18.06,54.12Z"/>
    </g>
  </g>
  <g>
    <path class="cls-2" d="M73.11,648.31c.74-.55,1.89-1.48,3.46-2.77,1.57-1.29,3.42-3.69,5.54-7.2,2.12-3.51,4.48-8.58,7.06-15.22s5.26-15.68,8.03-27.12c1.47-6.09,3.41-13.84,5.81-23.25,2.4-9.41,5.03-19.47,7.89-30.17,2.86-10.7,5.76-21.73,8.72-33.08,2.95-11.35,5.81-22.14,8.58-32.38,2.77-10.24,5.26-19.51,7.47-27.82s3.97-14.76,5.26-19.37c-3.51,2.21-6.92,4.71-10.24,7.47-2.95,2.4-6.09,5.12-9.41,8.17-3.32,3.04-6.55,6.23-9.69,9.55-2.4-2.03-4.25-4.24-5.54-6.64-.74-1.11-1.38-2.31-1.94-3.6-1.11-2.77-1.66-5.63-1.66-8.58s2.3-5.99,6.92-9.13c2.4-1.66,6.04-4.06,10.93-7.2,4.89-3.14,10.93-6.23,18.13-9.27,7.2-3.04,15.59-5.67,25.19-7.89,9.59-2.21,20.21-3.32,31.83-3.32s20.99,2.31,28.09,6.92c7.1,4.61,12.55,10.24,16.33,16.88,3.78,6.64,6.23,13.66,7.33,21.04,1.11,7.38,1.38,13.84,.83,19.37-1.11,10.34-4.43,21.13-9.96,32.38-5.54,11.26-13.2,21.64-22.97,31.14-9.78,9.51-21.68,17.58-35.71,24.22-14.03,6.64-30.08,10.43-48.16,11.35-1.48,7.01-2.95,14.21-4.43,21.59-1.48,7.38-3.04,14.63-4.71,21.73-1.66,7.1-3.37,13.74-5.12,19.93-1.76,6.18-3.55,11.49-5.4,15.92-1.85,4.8-4.25,8.62-7.2,11.49-2.95,2.86-7.66,4.29-14.12,4.29-3.32,0-6.41-.83-9.27-2.49-2.86-1.66-5.49-3.97-7.89-6.92Zm65.6-126.21c-.55,2.95-1.25,6.78-2.08,11.49-.83,4.71-1.8,10.01-2.91,15.92,4.98-.74,10.52-2.08,16.61-4.01,6.09-1.94,12.18-4.57,18.27-7.89,6.09-3.32,12.04-7.33,17.85-12.04s11.11-10.15,15.92-16.33c4.8-6.18,8.81-13.19,12.04-21.04,3.23-7.84,5.3-16.56,6.23-26.16,.92-9.22,.42-16.93-1.52-23.11-1.94-6.18-4.75-11.16-8.44-14.95-3.69-3.78-7.94-6.46-12.73-8.03-4.8-1.57-9.6-2.35-14.39-2.35s-9.13,.65-13.56,1.94c-4.43,1.29-8.86,2.95-13.29,4.98,.55,.19,1.2,.65,1.94,1.38,1.11,1.11,1.94,2.68,2.49,4.71-4.43,17.9-8.07,32.85-10.93,44.84-2.86,12-5.12,21.77-6.78,29.34-2.03,8.86-3.6,15.96-4.71,21.31Z"/>
    <path class="cls-2" d="M325.82,564.72c-1.85,7.01-4.34,13.56-7.47,19.65-3.14,6.09-6.88,11.35-11.21,15.78-4.34,4.43-9.23,7.89-14.67,10.38-5.45,2.49-11.4,3.74-17.85,3.74-7.57,0-13.52-1.62-17.85-4.84-4.34-3.23-7.57-7.24-9.69-12.04-2.12-4.8-3.41-10.06-3.87-15.78-.46-5.72-.69-11.07-.69-16.05,0-3.5,.42-7.38,1.25-11.62,.83-4.24,1.98-8.58,3.46-13.01,1.47-4.43,3.36-8.86,5.67-13.29,2.3-4.43,5.03-8.49,8.17-12.18,1.11-3.14,2.81-5.9,5.12-8.3,2.3-2.4,4.98-4.38,8.03-5.95,3.04-1.57,6.32-2.77,9.83-3.6,3.5-.83,6.92-1.25,10.24-1.25,.55,0,1.06,.09,1.52,.28,.46,.19,.97,.37,1.52,.55,2.4,.19,5.4,1.11,9,2.77,3.6,1.66,7.1,4.15,10.52,7.47,3.41,3.32,6.32,7.52,8.72,12.59,2.4,5.08,3.6,11.21,3.6,18.41,0,1.48-.09,3.28-.28,5.4-.19,2.12-.37,3.92-.55,5.4,4.24-1.66,8.67-3.69,13.29-6.09,4.61-2.4,9.09-4.93,13.42-7.61,4.33-2.67,8.35-5.4,12.04-8.17,3.69-2.77,6.64-5.26,8.86-7.47,1.84-1.66,3.41-2.58,4.71-2.77,1.29-.18,2.21,.19,2.77,1.11,.55,.93,.64,2.21,.28,3.87-.37,1.66-1.38,3.51-3.04,5.54-.93,1.11-3.28,3.32-7.06,6.64-3.78,3.32-8.26,6.92-13.42,10.79-5.17,3.87-10.79,7.66-16.88,11.35-6.09,3.69-11.9,6.46-17.44,8.3Zm-64.49,6.64c0,3.32,.18,6.6,.55,9.83,.37,3.23,1.11,6.09,2.21,8.58s2.58,4.52,4.43,6.09c1.84,1.57,4.24,2.35,7.2,2.35,3.32,0,6.37-.78,9.13-2.35,2.77-1.57,5.26-3.6,7.47-6.09s4.2-5.35,5.95-8.58c1.75-3.23,3.27-6.6,4.57-10.1-1.29,.19-2.54,.32-3.74,.42-1.2,.09-2.54,.14-4.01,.14-7.01,0-13.06-2.08-18.13-6.23-5.08-4.15-9-9.45-11.76-15.92-1.11,3.87-2.03,7.66-2.77,11.35-.74,3.69-1.11,7.2-1.11,10.52Zm17.71-48.71c-.55,1.66-.83,3.42-.83,5.26,0,2.95,.18,6.05,.55,9.27,.37,3.23,1.29,6.14,2.77,8.72,1.47,2.59,3.83,4.75,7.06,6.5,3.23,1.76,7.7,2.63,13.42,2.63,.92,0,1.84-.04,2.77-.14,.92-.09,1.84-.23,2.77-.42,.55-2.4,1.06-4.57,1.52-6.5,.46-1.94,.69-3.64,.69-5.12,.37-3.5,.37-7.1,0-10.79-.37-3.69-1.06-7.06-2.08-10.1-1.02-3.04-2.31-5.54-3.87-7.47-1.57-1.94-3.46-2.91-5.67-2.91-3.51,0-6.88,.97-10.1,2.91-3.23,1.94-6.23,4.66-9,8.17Z"/>
    <path class="cls-2" d="M335.5,726.91c-1.29-.55-2.58-1.38-3.87-2.49-1.11-.93-2.21-2.08-3.32-3.46-1.11-1.38-2.03-3.09-2.77-5.12,5.17-19.75,9.55-36.91,13.15-51.48,3.6-14.58,6.69-26.76,9.27-36.54,2.77-11.44,5.17-21.04,7.2-28.79,1.84-7.38,3.69-14.76,5.54-22.14,1.47-6.46,3.09-13.38,4.84-20.76,1.75-7.38,3.36-14.3,4.84-20.76,1.84-7.2,2.95-12.96,3.32-17.3,.37-4.33-1.02-8.07-4.15-11.21,2.21-1.84,4.47-3.27,6.78-4.29,2.3-1.01,4.38-1.7,6.23-2.08,2.03-.55,4.06-.74,6.09-.55,4.98,.37,8.07,1.94,9.27,4.71,1.2,2.77,1.34,7.2,.42,13.29-.19,.93-.32,1.71-.42,2.35-.09,.65-.14,1.34-.14,2.08,2.58-2.95,5.44-5.81,8.58-8.58,3.13-2.77,6.32-5.26,9.55-7.47,3.23-2.21,6.55-4.01,9.96-5.4,3.41-1.38,6.69-2.08,9.83-2.08,4.24,0,7.7,1.06,10.38,3.18,2.67,2.12,4.75,4.94,6.23,8.44,1.47,3.51,2.4,7.43,2.77,11.76,.37,4.34,.46,8.63,.28,12.87-.19,4.61-.97,9.51-2.35,14.67-1.38,5.17-3.28,10.43-5.67,15.78-2.4,5.35-5.17,10.61-8.3,15.78-3.14,5.17-6.46,9.96-9.96,14.39,.74,.19,1.2,.32,1.38,.42,.18,.09,.28,.19,.28,.28s.14,.19,.42,.28c.28,.09,.87,.14,1.8,.14,4.24,0,8.58-1.11,13.01-3.32,4.43-2.21,8.76-5.03,13.01-8.44,4.24-3.41,8.35-7.15,12.32-11.21,3.97-4.06,7.56-7.98,10.79-11.76,3.23-3.78,5.95-7.2,8.17-10.24,2.21-3.04,3.87-5.21,4.98-6.5,1.47-1.84,2.86-3.09,4.15-3.74,1.29-.64,2.3-.69,3.04-.14,.74,.55,1.11,1.62,1.11,3.18s-.55,3.55-1.66,5.95c-.74,1.66-2.31,4.34-4.71,8.03-2.4,3.69-5.35,7.84-8.86,12.46-3.51,4.61-7.52,9.41-12.04,14.39-4.52,4.98-9.27,9.51-14.25,13.56-4.98,4.06-10.1,7.43-15.36,10.1s-10.38,4.01-15.36,4.01c-2.4,0-4.34-.09-5.81-.28-1.48-.19-2.72-.51-3.74-.97-1.02-.46-1.99-.93-2.91-1.38-.93-.46-2.03-.97-3.32-1.52-3.32,2.58-6.74,4.57-10.24,5.95-3.51,1.38-6.92,2.08-10.24,2.08-3.14,0-5.86-.51-8.17-1.52-2.31-1.02-4.2-2.4-5.67-4.15-1.48-1.76-2.68-3.69-3.6-5.81-.93-2.12-1.66-4.2-2.21-6.23-.19,.74-.32,1.38-.42,1.94-.09,.55-.23,1.29-.42,2.21-2.21,8.86-4.52,19.1-6.92,30.72-2.03,9.96-4.48,22.1-7.33,36.4-2.86,14.3-5.86,30.58-9,48.85-1.11,4.98-3.09,7.84-5.95,8.58-2.86,.74-6.13,.37-9.83-1.11Zm50.65-171.61c-.93,3.14-1.89,6.78-2.91,10.93-1.02,4.15-2.17,9.09-3.46,14.81,1.47-1.11,3.13-1.94,4.98-2.49,1.84-.55,3.69-.83,5.54-.83,2.03,0,4.61,1.06,7.75,3.18,3.13,2.12,6.92,4.38,11.35,6.78,2.77-3.32,5.67-7.06,8.72-11.21,3.04-4.15,5.81-8.44,8.3-12.87,2.49-4.43,4.61-8.95,6.37-13.56,1.75-4.61,2.72-9.04,2.91-13.29,.37-5.54-.28-9.87-1.94-13.01-1.66-3.14-4.43-4.71-8.3-4.71-5.72,0-11.95,3.37-18.68,10.1-6.74,6.74-13.61,15.46-20.62,26.16Z"/>
    <path class="cls-2" d="M502.96,663.25c-5.35,0-10.61-1.06-15.78-3.18-5.16-2.12-9.78-5.12-13.84-9-4.06-3.87-7.29-8.63-9.69-14.25-2.4-5.63-3.41-12.04-3.04-19.24,.55-12.55,3.04-24.17,7.47-34.87,4.43-10.7,9.6-19.93,15.5-27.68,5.9-7.75,11.9-13.79,17.99-18.13,6.09-4.33,11.16-6.5,15.22-6.5,2.58,0,4.93,.88,7.06,2.63,2.12,1.76,3.78,3.97,4.98,6.64,1.2,2.68,1.94,5.63,2.21,8.86,.28,3.23-.14,6.32-1.25,9.27-1.85-1.29-5.26-.83-10.24,1.38-4.98,2.21-10.15,5.95-15.5,11.21-5.35,5.26-10.15,11.76-14.39,19.51-4.25,7.75-6.64,16.43-7.2,26.02-.37,6.27-.04,11.62,.97,16.05,1.01,4.43,2.49,8.03,4.43,10.79,1.94,2.77,4.15,4.8,6.64,6.09,2.49,1.29,5.12,1.94,7.89,1.94,6.64,0,12.73-2.49,18.27-7.47,5.54-4.98,10.61-11.95,15.22-20.9,4.61-8.95,8.95-19.65,13.01-32.11,4.06-12.46,7.93-26.25,11.62-41.38,1.11-4.61,2.53-10.33,4.29-17.16,1.75-6.82,3.64-14.25,5.67-22.28,2.03-8.03,4.2-16.33,6.5-24.91,2.3-8.58,4.47-16.79,6.5-24.63,2.03-7.84,3.97-15.13,5.81-21.87,1.84-6.73,3.32-12.22,4.43-16.47-6.09,0-12.18,.37-18.27,1.11-5.17,.55-10.52,1.34-16.05,2.35-5.54,1.02-10.15,2.35-13.84,4.01-.37-.18-.65-.69-.83-1.52-.19-.83-.37-1.7-.55-2.63-.19-1.11-.37-2.31-.55-3.6-.19-1.47-.19-2.95,0-4.43,.18-1.29,.37-2.72,.55-4.29,.18-1.57,.55-3.18,1.11-4.84,4.8-1.47,10.38-2.63,16.75-3.46,6.37-.83,12.32-1.43,17.85-1.8,6.46-.55,13.1-.83,19.93-.83,4.98,0,10.15,.28,15.5,.83,4.61,.37,9.78,.93,15.5,1.66,5.72,.74,11.44,1.85,17.16,3.32,1.29,1.29,2.12,2.77,2.49,4.43,.18,.74,.28,1.57,.28,2.49,0,1.48-.28,2.86-.83,4.15-.37,1.11-.97,2.26-1.8,3.46-.83,1.2-1.89,2.17-3.18,2.91-2.03-.55-4.57-.97-7.61-1.25s-6.05-.6-9-.97c-3.32-.37-6.83-.64-10.52-.83l-29.34,130.64c-.74,3.14-2.03,8.07-3.87,14.81-1.85,6.74-4.38,14.21-7.61,22.42-3.23,8.21-7.11,16.65-11.62,25.33-4.52,8.67-9.83,16.56-15.92,23.66-6.09,7.1-13.01,12.96-20.76,17.58-7.75,4.61-16.33,6.92-25.74,6.92Z"/>
    <path class="cls-2" d="M726.88,481.68c-.19-.55,.37-1.98,1.66-4.29,1.29-2.31,2.72-5.16,4.29-8.58,1.57-3.41,3.13-7.29,4.71-11.62,1.57-4.33,2.67-8.81,3.32-13.42,.64-4.61,.6-9.22-.14-13.84-.74-4.61-2.68-9.04-5.81-13.29-1.85-2.21-4.57-3.46-8.17-3.74-3.6-.28-7.66,.28-12.18,1.66-4.52,1.38-9.23,3.51-14.12,6.37-4.89,2.86-9.37,6.18-13.42,9.96-4.06,3.78-7.52,7.98-10.38,12.59-2.86,4.61-4.48,9.32-4.84,14.12-.37,3.87-.23,7.47,.42,10.79,.64,3.32,1.52,6.37,2.63,9.13s2.3,5.35,3.6,7.75c1.29,2.4,2.49,4.52,3.6,6.37,1.47,2.59,3.78,5.44,6.92,8.58,3.13,3.14,6.55,6.69,10.24,10.66,3.69,3.97,7.38,8.44,11.07,13.42,3.69,4.98,6.92,10.61,9.69,16.88,2.77,6.28,4.71,13.29,5.81,21.04,1.11,7.75,1.01,16.33-.28,25.74-2.03,13.66-5.26,25.05-9.69,34.18-4.43,9.13-9.27,16.47-14.53,22-5.26,5.54-10.57,9.55-15.92,12.04-5.35,2.49-9.78,4.1-13.29,4.84-2.77,.55-6.05,1.06-9.83,1.52-3.78,.46-7.75,.37-11.9-.28-4.15-.65-8.35-1.94-12.59-3.87-4.25-1.94-8.03-4.94-11.35-9-3.87-4.61-6.92-9.6-9.13-14.95-2.03-4.61-3.55-9.92-4.57-15.92-1.01-6-.51-12.22,1.52-18.68,1.48-1.66,3.04-3.14,4.71-4.43,1.66-1.29,3.32-2.4,4.98-3.32,1.84-1.11,3.78-2.12,5.81-3.04,2.4-.74,4.8-1.38,7.2-1.94,2.03-.37,4.2-.6,6.5-.69,2.3-.09,4.47,.23,6.5,.97-2.77,3.14-4.71,6.09-5.81,8.86-.74,1.48-1.29,2.77-1.66,3.87-.74,3.51-.97,7.71-.69,12.59,.28,4.89,1.29,9.59,3.04,14.12,1.75,4.52,4.29,8.39,7.61,11.62,3.32,3.23,7.75,4.93,13.29,5.12,13.47,.37,24.91-10.15,34.32-31.55,3.13-6.64,4.75-13.38,4.84-20.21,.09-6.82-.74-13.38-2.49-19.65-1.76-6.27-4.06-12.13-6.92-17.58-2.86-5.44-5.77-10.1-8.72-13.98-2.95-3.87-6.5-8.07-10.66-12.59-4.15-4.52-8.26-9.45-12.32-14.81-4.06-5.35-7.71-11.16-10.93-17.44-3.23-6.27-5.4-13.1-6.5-20.48-1.48-10.33-.51-19.79,2.91-28.37,3.41-8.58,8.03-16.1,13.84-22.56,5.81-6.46,12.18-11.72,19.1-15.78,6.92-4.06,13.05-6.64,18.41-7.75,29.71-5.9,49.17-.92,58.4,14.95,3.87,6.09,5.99,12.55,6.37,19.37,.37,6.83-.05,13.15-1.25,18.96-1.2,5.81-2.68,10.7-4.43,14.67-1.76,3.97-2.91,6.14-3.46,6.5-1.11,1.11-2.86,2.31-5.26,3.6-2.4,1.29-6.28,2.49-11.62,3.6-1.48,.37-2.95,.55-4.43,.55-1.29,0-2.68-.09-4.15-.28-1.48-.18-2.77-.55-3.87-1.11Z"/>
  </g>
</svg>