<?xml version="1.0" encoding="UTF-8"?>
<svg id="Capa_1" data-name="Capa 1" xmlns="http://www.w3.org/2000/svg" viewBox="0 0 579.2 474.82">
  <defs>
    <style>
      .cls-1 {
        fill: #fff;
      }

      .cls-2 {
        fill: #13c1ac;
      }
    </style>
  </defs>
  <rect class="cls-2" x="77.1" y="41.41" width="425" height="392" rx="121.89" ry="121.89"/>
  <g>
    <path class="cls-1" d="M98.08,299.23c2.2-5.4,4.5-10.7,6.5-16.2,.4-1.1,.1-2.7-.3-3.9-10.5-34.4,15.1-69.2,51-68.9,15.2,.1,28.2,5.8,38.6,16.9,1.7,1.8,3.3,2.5,5.8,2.4,18.8-.3,34.1,12.6,37.4,31.5,3,17.1-7.5,34.6-24.5,40.9-1.6,.6-3.4,2.1-4,3.7-7.4,17.4-24.1,27.2-42.9,25.3-1.9-.2-4.3,.2-5.7,1.4-21.7,18.3-54.3,7.8-61-19.8-.2-.9-.6-1.8-.9-2.7,0-3.7,0-7.2,0-10.6Zm34.9-12.5c-2.2,1.9-4.2,3.6-6.2,5.3-5.2,4.3-7.5,9.7-5.5,16.3,1.8,5.9,5.8,9.5,12,10.4,7,1,12.1-2,15.5-8,1.5-2.7,3.1-5.3,4.7-8,3.2,1.5,6,2.8,8.8,4.1,12.4,5.5,24.8-1.4,26.6-14.8,.5-3.4,.7-6.8,1.1-10.4,3.7,0,6.9,.1,10.1,0,6.5-.1,11.3-3.2,13.7-9.2,2.3-5.7,1.4-11.1-2.9-15.6-4.5-4.7-10-5.8-16.1-3.8-2.8,.9-5.6,2-8.5,3-1.9-3.2-3.6-6.2-5.5-9.1-8.9-13.8-27.1-18.3-41.1-10.1-14.2,8.3-19.5,25.9-12.1,40.6,1.7,2.9,3.5,5.9,5.4,9.3Z"/>
    <path class="cls-1" d="M289.58,63.43c24.8-.1,46.3,17.2,52,41.5,.4,1.6,1.8,3.5,3.3,4.3,16.2,9.2,23.5,28,17.4,45.3-6.2,17.3-23.6,27.4-41.9,24.2-2.2-.4-3.9-.1-5.8,1.4-14.6,11.4-34.9,11.4-49.6,.1-1.8-1.4-3.4-1.9-5.7-1.5-18.6,3.3-36-6.8-42.1-24.3s1.3-36,17.9-45.3c1.3-.8,2.5-2.7,2.8-4.3,5.5-24,27.1-41.3,51.7-41.4Zm21.1,86.5c3.5,2,6.7,4,10,5.6,5.6,2.7,11,2.1,15.7-1.9,4.6-3.8,6.5-8.8,5-14.7-1.5-6-5.3-9.8-11.3-11.1-3.1-.7-6.3-1.2-9.8-1.9,0-3.4,.1-6.6,0-9.8-.4-15.9-12.6-28.8-28.6-30.1-15.2-1.2-29.3,9.6-32.1,24.9-.9,4.8-.7,9.9-1,15-2.9,.6-5.8,1.1-8.7,1.7-6.4,1.2-10.5,5-12,11.3-1.5,6.1,.5,11.2,5.4,14.9,5.1,4,10.8,4.2,16.5,1.1,2.9-1.6,5.8-3.3,8.9-5.1,5.4,7.7,9.8,16.2,20.9,16.3,11.2,.1,15.8-8.5,21.1-16.2Z"/>
    <path class="cls-1" d="M478.08,229.33c-1,5.1-2.1,10.2-2.8,15.4-.3,1.8-.2,4,.6,5.4,9.5,16.3,6.3,36.3-7.8,48.1-14,11.8-34.1,11.6-48.5-.3-1.3-1.1-3.6-1.7-5.3-1.5-18.3,2.4-36-7.6-43.1-24.8-1-2.3-2.2-3.5-4.5-4.3-16.9-6-27.4-23.8-24.3-40.9,3.5-18.7,18.5-31.5,37.2-31.3,2.6,0,4.3-.7,6.1-2.6,15.6-15.5,34.2-20.8,55.1-14,20.7,6.8,32.5,21.7,36,43.2,.4,2.5,.5,4.9,.8,7.4,.2,.2,.4,.2,.5,.2Zm-31.6,23.1c1.8-3.2,3.5-6.1,5-9,7.7-14.9,2.6-32.7-11.7-40.9-14.5-8.4-32.5-3.8-41.6,10.5-1.7,2.7-2.8,6.9-5.2,7.8-2.3,.9-6-1.5-9-2.4-.4-.1-.7-.2-1.1-.3-5.6-1.4-10.4,.1-14.3,4.1-4,4.1-5.1,9.1-3.4,14.5,2.2,7.3,7.7,10.5,17.7,10.5q6.8,0,7.2,6.6c.1,1.4,.3,2.7,.5,4.1,1.8,12.9,14.1,19.9,26.1,14.7,3.1-1.3,6.1-2.8,9.3-4.3,1.8,3.1,3.4,6,5.2,8.8,3.4,5.5,8.4,8.1,14.8,7.2,6.2-.8,10.3-4.4,12.1-10.2,1.9-6.2,.1-11.5-4.7-15.8-2.2-2-4.5-3.9-6.9-5.9Z"/>
    <path class="cls-1" d="M278.68,215.33h22v114.5h-22v-114.5Z"/>
    <path class="cls-1" d="M213.88,335.23c21.7,26,29.5,54.1,27.4,82.7h-22c.2-12.6-.6-25-4.6-37.1-4-12-10.9-22.3-18.8-32.5,6.1-4.4,11.9-8.7,18-13.1Z"/>
    <path class="cls-1" d="M356.28,391.83h-22.4c-2.2-31.4,7.3-58.7,27.4-82.7,5.9,4.3,11.7,8.5,18.2,13.2-17.2,20-25.4,43-23.2,69.5Z"/>
  </g>
</svg>