<?xml version="1.0" encoding="utf-8"?>
<!-- Generator: Adobe Illustrator 26.5.0, SVG Export Plug-In . SVG Version: 6.00 Build 0)  -->
<svg version="1.1" id="Capa_1" xmlns="http://www.w3.org/2000/svg" xmlns:xlink="http://www.w3.org/1999/xlink" x="0px" y="0px"
	 viewBox="0 0 387.3 356.9" style="enable-background:new 0 0 387.3 356.9;" xml:space="preserve">
<g>
	<path d="M3,236.7c2.2-5.4,4.5-10.7,6.5-16.2c0.4-1.1,0.1-2.7-0.3-3.9c-10.5-34.4,15.1-69.2,51-68.9c15.2,0.1,28.2,5.8,38.6,16.9
		c1.7,1.8,3.3,2.5,5.8,2.4c18.8-0.3,34.1,12.6,37.4,31.5c3,17.1-7.5,34.6-24.5,40.9c-1.6,0.6-3.4,2.1-4,3.7
		c-7.4,17.4-24.1,27.2-42.9,25.3c-1.9-0.2-4.3,0.2-5.7,1.4c-21.7,18.3-54.3,7.8-61-19.8c-0.2-0.9-0.6-1.8-0.9-2.7
		C3,243.6,3,240.1,3,236.7z M37.9,224.2c-2.2,1.9-4.2,3.6-6.2,5.3c-5.2,4.3-7.5,9.7-5.5,16.3c1.8,5.9,5.8,9.5,12,10.4
		c7,1,12.1-2,15.5-8c1.5-2.7,3.1-5.3,4.7-8c3.2,1.5,6,2.8,8.8,4.1c12.4,5.5,24.8-1.4,26.6-14.8c0.5-3.4,0.7-6.8,1.1-10.4
		c3.7,0,6.9,0.1,10.1,0c6.5-0.1,11.3-3.2,13.7-9.2c2.3-5.7,1.4-11.1-2.9-15.6c-4.5-4.7-10-5.8-16.1-3.8c-2.8,0.9-5.6,2-8.5,3
		c-1.9-3.2-3.6-6.2-5.5-9.1c-8.9-13.8-27.1-18.3-41.1-10.1c-14.2,8.3-19.5,25.9-12.1,40.6C34.2,217.8,36,220.8,37.9,224.2z"/>
	<path d="M194.5,0.9c24.8-0.1,46.3,17.2,52,41.5c0.4,1.6,1.8,3.5,3.3,4.3c16.2,9.2,23.5,28,17.4,45.3c-6.2,17.3-23.6,27.4-41.9,24.2
		c-2.2-0.4-3.9-0.1-5.8,1.4c-14.6,11.4-34.9,11.4-49.6,0.1c-1.8-1.4-3.4-1.9-5.7-1.5c-18.6,3.3-36-6.8-42.1-24.3s1.3-36,17.9-45.3
		c1.3-0.8,2.5-2.7,2.8-4.3C148.3,18.3,169.9,1,194.5,0.9z M215.6,87.4c3.5,2,6.7,4,10,5.6c5.6,2.7,11,2.1,15.7-1.9
		c4.6-3.8,6.5-8.8,5-14.7c-1.5-6-5.3-9.8-11.3-11.1c-3.1-0.7-6.3-1.2-9.8-1.9c0-3.4,0.1-6.6,0-9.8c-0.4-15.9-12.6-28.8-28.6-30.1
		c-15.2-1.2-29.3,9.6-32.1,24.9c-0.9,4.8-0.7,9.9-1,15c-2.9,0.6-5.8,1.1-8.7,1.7c-6.4,1.2-10.5,5-12,11.3
		c-1.5,6.1,0.5,11.2,5.4,14.9c5.1,4,10.8,4.2,16.5,1.1c2.9-1.6,5.8-3.3,8.9-5.1c5.4,7.7,9.8,16.2,20.9,16.3
		C205.7,103.7,210.3,95.1,215.6,87.4z"/>
	<path d="M383,166.8c-1,5.1-2.1,10.2-2.8,15.4c-0.3,1.8-0.2,4,0.6,5.4c9.5,16.3,6.3,36.3-7.8,48.1c-14,11.8-34.1,11.6-48.5-0.3
		c-1.3-1.1-3.6-1.7-5.3-1.5c-18.3,2.4-36-7.6-43.1-24.8c-1-2.3-2.2-3.5-4.5-4.3c-16.9-6-27.4-23.8-24.3-40.9
		c3.5-18.7,18.5-31.5,37.2-31.3c2.6,0,4.3-0.7,6.1-2.6c15.6-15.5,34.2-20.8,55.1-14c20.7,6.8,32.5,21.7,36,43.2
		c0.4,2.5,0.5,4.9,0.8,7.4C382.7,166.8,382.9,166.8,383,166.8z M351.4,189.9c1.8-3.2,3.5-6.1,5-9c7.7-14.9,2.6-32.7-11.7-40.9
		c-14.5-8.4-32.5-3.8-41.6,10.5c-1.7,2.7-2.8,6.9-5.2,7.8c-2.3,0.9-6-1.5-9-2.4c-0.4-0.1-0.7-0.2-1.1-0.3
		c-5.6-1.4-10.4,0.1-14.3,4.1c-4,4.1-5.1,9.1-3.4,14.5c2.2,7.3,7.7,10.5,17.7,10.5c6.8,0,6.8,0,7.2,6.6c0.1,1.4,0.3,2.7,0.5,4.1
		c1.8,12.9,14.1,19.9,26.1,14.7c3.1-1.3,6.1-2.8,9.3-4.3c1.8,3.1,3.4,6,5.2,8.8c3.4,5.5,8.4,8.1,14.8,7.2
		c6.2-0.8,10.3-4.4,12.1-10.2c1.9-6.2,0.1-11.5-4.7-15.8C356.1,193.8,353.8,191.9,351.4,189.9z"/>
	<path d="M183.6,152.8c7.4,0,14.6,0,22,0c0,38.1,0,76.2,0,114.5c-7.3,0-14.6,0-22,0C183.6,229.1,183.6,191.1,183.6,152.8z"/>
	<path d="M118.8,272.7c21.7,26,29.5,54.1,27.4,82.7c-7.1,0-14.3,0-22,0c0.2-12.6-0.6-25-4.6-37.1c-4-12-10.9-22.3-18.8-32.5
		C106.9,281.4,112.7,277.1,118.8,272.7z"/>
	<path d="M261.2,329.3c-8,0-15.1,0-22.4,0c-2.2-31.4,7.3-58.7,27.4-82.7c5.9,4.3,11.7,8.5,18.2,13.2
		C267.2,279.8,259,302.8,261.2,329.3z"/>
</g>
</svg>
