<?xml version="1.0" encoding="UTF-8"?>
<svg id="svg5" xmlns="http://www.w3.org/2000/svg" viewBox="0 0 800 800">
  <defs>
    <style>
      .cls-1 {
        fill-rule: evenodd;
      }

      .cls-1, .cls-2, .cls-3 {
        fill: #fff;
        stroke: #fff;
        stroke-miterlimit: 10;
      }

      .cls-2 {
        stroke-linecap: round;
      }

      .cls-2, .cls-3 {
        stroke-width: 50px;
      }
    </style>
  </defs>
  <g id="layer1">
    <path id="circle5359" class="cls-1" d="M228.23,606.86c-41.13,0-75,33.87-75,75s33.87,75,75,75,75-33.87,75-75-33.87-75-75-75Zm0,50c14.1,0,25,10.9,25,25s-10.9,25-25,25-25-10.9-25-25,10.9-25,25-25Z"/>
    <path id="circle5361" class="cls-1" d="M578.23,606.86c-41.13,0-75,33.87-75,75s33.87,75,75,75,75-33.87,75-75-33.87-75-75-75Zm0,50c14.1,0,25,10.9,25,25s-10.9,25-25,25-25-10.9-25-25,10.9-25,25-25Z"/>
    <path id="path21288" class="cls-1" d="M79.45,56.71c-13.81,0-25,11.19-25,25s11.19,25,25,25h29.49l66.26,331.05c-26.77,11.5-45.75,38.18-45.75,68.95,0,41.12,33.88,75,75,75h425c13.81,0,25-11.19,25-25s-11.19-25-25-25H204.45c-14.28,0-25-10.72-25-25s10.72-25,25-25h375c.24-.05,.49-.1,.73-.15h74.27c12.3,0,22.78-8.94,24.71-21.09l23.49-149.22c2.16-13.64-7.14-26.45-20.77-28.61,0,0-.02,0-.03,0-13.64-2.16-26.44,7.14-28.6,20.78,0,.02,0,.05-.01,.07l-20.17,128.08H224.96l-45.02-224.85H482.04c13.81,0,25-11.19,25-25s-11.19-25-25-25H169.93l-15.97-79.88c-2.33-11.69-12.59-20.11-24.51-20.12h-50Z"/>
  </g>
  <line class="cls-3" x1="668.04" y1="368.11" x2="703.27" y2="162.02"/>
  <line class="cls-2" x1="434.65" y1="181.4" x2="745.55" y2="180.52"/>
</svg>